
<svg
    width="63"
    height="57"
    viewBox="0 0 63 57"
    fill="none"
    xmlns="http://www.w3.org/2000/svg"
>
    <g clipPath="url(#clip0_507_50)">
        <path
            d="M0 16.5229C0 15.6967 0.217137 14.8849 0.62972 14.1687L7.43163 2.36096L8.19169 55.6509L1.32996 50.9894C0.497965 50.4241 0 49.4844 0 48.4797V16.5229Z"
            fill="#DEDDD9"
        />
        <path
            d="M6.58716 5.10365C6.58716 2.38253 8.88465 0.224541 11.6049 0.39057L56.23 3.1142C58.6402 3.26131 60.5523 5.19769 60.6655 7.60597L62.6894 50.6706C62.8136 53.3124 60.7408 55.5408 58.0929 55.6123L11.444 56.8691C8.78309 56.9408 6.58716 54.8067 6.58716 52.1489V5.10365Z"
            fill="white"
        />
        <path
            d="M7.76941 5.41529C7.76941 2.70369 10.0515 0.549165 12.763 0.700776L56.2806 3.13397C58.7052 3.26954 60.633 5.21668 60.7406 7.639L62.6191 49.8713C62.7358 52.4961 60.684 54.7114 58.0539 54.7999L12.6581 56.3293C9.98525 56.4193 7.76941 54.2803 7.76941 51.6101V5.41529Z"
            fill="#EAE6DD"
        />
        <path
            d="M7.76941 5.41529C7.76941 2.70369 10.0515 0.549165 12.763 0.700776L56.2806 3.13397C58.7052 3.26954 60.633 5.21668 60.7406 7.639L62.6191 49.8713C62.7358 52.4961 60.684 54.7114 58.0539 54.7999L12.6581 56.3293C9.98525 56.4193 7.76941 54.2803 7.76941 51.6101V5.41529Z"
            fill="#EAE6DD"
        />
        <path
            d="M10.6407 6.12175C10.6407 4.76628 11.7813 3.68914 13.1368 3.76447L55.5775 6.12285C56.7758 6.18945 57.7342 7.14185 57.8063 8.33804L59.5553 37.2957C59.6372 38.6531 58.5569 39.7988 57.1949 39.7988H13.0054C11.6994 39.7988 10.6407 38.7418 10.6407 37.4379V6.12175Z"
            fill="#A7A28E"
        />
        <path
            d="M11.0089 6.89922C10.9925 5.53683 12.1312 4.44338 13.494 4.51291L55.1487 6.63795C56.3499 6.69923 57.3136 7.65106 57.3881 8.84968L59.1285 36.87C59.2129 38.2289 58.1319 39.3772 56.7684 39.3772H13.7371C12.4423 39.3772 11.3883 38.3374 11.3727 37.0447L11.0089 6.89922Z"
            fill="#17161B"
        />
        <path
            d="M15.8929 11.6892C15.8841 11.2966 16.2118 10.9795 16.6046 11.0006L51.4095 12.8681C51.7568 12.8867 52.0331 13.1654 52.0483 13.5121L52.9192 33.3545C52.9362 33.7407 52.6253 34.0621 52.238 34.0585L17.038 33.7339C16.6732 33.7305 16.3769 33.4385 16.3688 33.0744L15.8929 11.6892Z"
            fill="#252736"
        />
        <path
            d="M30.571 21.4171H29.8954V22.0917H29.9799H30.74V23.4408H31.2467V21.4171H32.8512V23.4408H33.4424V20.7426H30.571V21.4171Z"
            fill="white"
        />
        <path
            d="M32.7668 23.5251H31.3311V23.6095V24.1997H32.7668V23.5251Z"
            fill="white"
        />
        <path
            d="M33.5268 25.5488H34.2868V26.2234H35.807V25.5488H36.3981V26.2234H35.807V26.9823H34.2868V26.2234H33.5268V25.5488Z"
            fill="white"
        />
        <path
            d="M36.3137 20.9113V23.5252H36.9893V21.5858H38.3405V23.5252H38.9316V22.2604H39.6917V21.5858H38.9316V20.9113H36.3137Z"
            fill="white"
        />
        <path
            d="M37.0737 24.2841H38.256V23.6095H37.0737V24.2841Z"
            fill="white"
        />
        <path
            d="M34.2869 26.2233V25.5488H33.5268V26.2233H34.2869ZM34.2869 26.2233V26.9822H35.807V26.2233M34.2869 26.2233H35.807M35.807 26.2233V25.5488H36.3981V26.2233H35.807ZM29.8954 21.4171H30.571V20.7426H33.4424V23.4408H32.8512V21.4171H31.2467V23.4408H30.74V22.0917H29.9799H29.8954V21.4171ZM31.3311 23.5251H32.7668V24.1997H31.3311V23.6094V23.5251ZM36.3137 23.5251V20.9112H38.9316V21.5857H39.6917V22.2603H38.9316V23.5251H38.3405C38.3405 22.9067 38.3405 21.6532 38.3405 21.5857H36.9893V23.5251H36.3137ZM38.256 24.284H37.0737V23.6094H38.256V24.284Z"
            stroke="white"
            strokeWidth="0.1"
        />
        <path
            d="M3.12469 9.86536V50.8446V51.4187C3.12469 51.5969 3.15348 51.774 3.20994 51.9432L3.2384 52.0285C3.2747 52.1371 3.33585 52.2359 3.41701 52.317C3.44726 52.3472 3.48043 52.3744 3.51602 52.398L3.58917 52.4467L3.71585 52.531"
            stroke="#FEFEFC"
            strokeWidth="0.1"
        />
        <g filter="url(#filter0_f_507_50)">
            <path
                d="M43.1567 44.5091C42.9783 44.5106 42.8226 44.4782 42.6897 44.4119C42.5593 44.3457 42.4571 44.2494 42.3831 44.1232C42.3117 43.9942 42.2752 43.8421 42.2737 43.6667L42.2622 42.3311C42.2605 42.153 42.2943 42.0004 42.3635 41.8729C42.4353 41.7454 42.5358 41.6474 42.665 41.579C42.7968 41.5103 42.952 41.4753 43.1304 41.4737C43.3087 41.472 43.4629 41.5059 43.5933 41.5749C43.7235 41.6412 43.8244 41.7375 43.8958 41.8636C43.9671 41.9899 44.0036 42.1407 44.0051 42.3161L43.6403 42.3193C43.6389 42.152 43.5931 42.0242 43.5031 41.936C43.416 41.8449 43.2925 41.8001 43.1331 41.8016C42.9736 41.8029 42.8485 41.8484 42.7573 41.9383C42.6689 42.028 42.6255 42.1567 42.6269 42.324L42.6385 43.6635C42.64 43.8308 42.6856 43.96 42.7757 44.0509C42.8684 44.1419 42.9944 44.1866 43.1538 44.1853C43.3133 44.1839 43.4359 44.137 43.5215 44.0445C43.6099 43.9521 43.6534 43.822 43.6519 43.6547L43.6487 43.2905L43.0488 43.2957L43.0459 42.9638L44.0107 42.9556L44.0167 43.6517C44.0183 43.8244 43.9845 43.9757 43.9152 44.1059C43.8462 44.2332 43.747 44.3327 43.618 44.4038C43.4888 44.4725 43.3351 44.5076 43.1567 44.5091ZM44.5572 44.4565L45.3017 41.4953L45.7922 41.4911L46.584 44.4389L46.2152 44.4421L46.0137 43.6586L45.118 43.6664L44.9302 44.4532L44.5572 44.4565ZM45.1882 43.3581L45.9339 43.3517L45.6992 42.4431C45.6544 42.2707 45.6193 42.1267 45.5939 42.0108C45.5686 41.895 45.5532 41.8196 45.5475 41.7845C45.5424 41.8198 45.5281 41.8955 45.5048 42.0117C45.4815 42.1279 45.449 42.2712 45.4073 42.4416L45.1882 43.3581ZM47.158 44.4339L47.1323 41.4795L48.0484 41.4715C48.2241 41.47 48.3784 41.5051 48.5114 41.5768C48.6445 41.6457 48.748 41.7434 48.822 41.8695C48.8961 41.9957 48.934 42.1439 48.9353 42.3137C48.9372 42.5134 48.8858 42.6852 48.7818 42.8293C48.6803 42.9731 48.5406 43.0728 48.3627 43.1283L48.9943 44.418L48.5646 44.4217L47.9861 43.1719L47.5118 43.1761L47.5228 44.4308L47.158 44.4339ZM47.5091 42.8483L48.0602 42.8436C48.2116 42.8422 48.3328 42.794 48.4239 42.6987C48.5149 42.6007 48.5598 42.4736 48.5583 42.3171C48.557 42.1579 48.51 42.0314 48.4173 41.9378C48.3246 41.8442 48.2026 41.798 48.0513 41.7994L47.5 41.8041L47.5091 42.8483ZM49.6817 44.4121L49.656 41.4575L50.0208 41.4545L50.0436 44.077L51.3813 44.0654L51.3842 44.3973L49.6817 44.4121ZM52.0716 44.3914L52.0688 44.0595L52.6727 44.0543L52.6528 41.7635L52.0488 41.7687L52.046 41.4368L53.6269 41.4231L53.6297 41.755L53.0258 41.7603L53.0457 44.051L53.6497 44.0458L53.6525 44.3777L52.0716 44.3914ZM55.3091 44.4037C55.1308 44.4054 54.9752 44.373 54.8421 44.3065C54.7119 44.2403 54.6097 44.144 54.5356 44.0178C54.4643 43.889 54.4278 43.7369 54.4263 43.5615L54.4146 42.2259C54.4131 42.0478 54.4469 41.895 54.516 41.7677C54.5879 41.6402 54.6884 41.5422 54.8174 41.4736C54.9494 41.4049 55.1044 41.3699 55.2828 41.3683C55.4611 41.3668 55.6155 41.4005 55.7457 41.4695C55.8761 41.536 55.977 41.6321 56.0482 41.7584C56.1197 41.8845 56.1562 42.0353 56.1577 42.2107L55.7929 42.2139C55.7913 42.0466 55.7456 41.9188 55.6557 41.8306C55.5684 41.7395 55.4451 41.6948 55.2856 41.6962C55.1262 41.6975 55.0009 41.7432 54.9098 41.8329C54.8213 41.9228 54.7779 42.0513 54.7794 42.2186L54.7911 43.5583C54.7925 43.7256 54.8382 43.8546 54.9282 43.9456C55.0208 44.0338 55.1468 44.0774 55.3062 44.0758C55.4657 44.0745 55.5883 44.029 55.6739 43.9392C55.7624 43.8467 55.8059 43.7168 55.8043 43.5495L56.1692 43.5463C56.1707 43.719 56.1369 43.8704 56.0678 44.0005C55.9986 44.1279 55.8994 44.2273 55.7704 44.2986C55.6412 44.3671 55.4875 44.4022 55.3091 44.4037Z"
                fill="#999787"
            />
        </g>
        <g filter="url(#filter1_f_507_50)">
            <path
                d="M21.0967 44.6863L21.0871 43.5784L21.3744 43.5758C21.4463 43.5753 21.5083 43.5885 21.5602 43.6153C21.6131 43.6421 21.6539 43.6802 21.6828 43.7296C21.7127 43.7789 21.7279 43.8374 21.7284 43.9052L21.7323 44.3469C21.7328 44.4147 21.7186 44.474 21.6897 44.5248C21.6617 44.5747 21.6215 44.6135 21.5691 44.6413C21.5176 44.669 21.456 44.6833 21.384 44.6838L21.0967 44.6863ZM21.2325 44.5637L21.383 44.5624C21.4499 44.5619 21.5019 44.5427 21.5391 44.5049C21.5772 44.4671 21.596 44.4148 21.5955 44.348L21.5916 43.9064C21.5911 43.8406 21.5713 43.7892 21.5325 43.7521C21.4947 43.715 21.4423 43.6968 21.3754 43.6973L21.2249 43.6986L21.2325 44.5637ZM22.0279 44.6782L22.0269 44.5538L22.2534 44.5519L22.2459 43.6929L22.0194 43.6947L22.0182 43.5703L22.6111 43.5652L22.6123 43.6897L22.3858 43.6917L22.3932 44.5506L22.6197 44.5487L22.6207 44.6732L22.0279 44.6782ZM23.2419 44.683C23.175 44.6835 23.1168 44.6713 23.0668 44.6465C23.018 44.6216 22.9796 44.5855 22.9519 44.5383C22.9251 44.4899 22.9114 44.4329 22.9109 44.3671L22.9065 43.8662C22.906 43.7995 22.9187 43.7421 22.9445 43.6944C22.9715 43.6465 23.0092 43.6097 23.0577 43.5841C23.107 43.5583 23.1653 43.5452 23.2321 43.5446C23.299 43.5441 23.3568 43.5568 23.4058 43.5826C23.4546 43.6076 23.4924 43.6436 23.5191 43.6909C23.546 43.7382 23.5596 43.7947 23.5601 43.8605L23.4233 43.8617C23.4228 43.799 23.4056 43.7511 23.372 43.718C23.3392 43.6839 23.2929 43.6671 23.2331 43.6676C23.1734 43.6681 23.1264 43.6851 23.0923 43.7188C23.059 43.7526 23.0428 43.8008 23.0433 43.8635L23.0477 44.3659C23.0482 44.4287 23.0654 44.477 23.099 44.5111C23.1338 44.5452 23.1811 44.562 23.2409 44.5615C23.3007 44.561 23.3467 44.5433 23.3787 44.5088C23.412 44.474 23.4282 44.4253 23.4277 44.3625L23.4265 44.2259L23.2016 44.228L23.2006 44.1035L23.5622 44.1003L23.5645 44.3614C23.565 44.4261 23.5524 44.483 23.5265 44.5317C23.5005 44.5794 23.4634 44.6167 23.4149 44.6435C23.3666 44.6691 23.3088 44.6823 23.2419 44.683ZM23.8508 44.6624L23.8498 44.5379L24.0761 44.5361L24.0687 43.677L23.8422 43.6791L23.8412 43.5546L24.434 43.5494L24.4351 43.6738L24.2086 43.6758L24.216 44.5349L24.4425 44.5329L24.4437 44.6573L23.8508 44.6624ZM24.9902 44.6526L24.9816 43.6676L24.6778 43.6703L24.6766 43.5458L25.4214 43.5392L25.4224 43.6637L25.1184 43.6664L25.127 44.6514L24.9902 44.6526ZM25.5902 44.6474L25.8692 43.5369L26.0531 43.5354L26.35 44.6408L26.2117 44.642L26.1362 44.3482L25.8003 44.3511L25.7298 44.6462L25.5902 44.6474ZM25.8266 44.2356L26.1063 44.233L26.0183 43.8924C26.0014 43.8278 25.9884 43.7737 25.9788 43.7303C25.9693 43.6868 25.9636 43.6586 25.9614 43.6455C25.9595 43.6586 25.9541 43.687 25.9454 43.7307C25.9367 43.7742 25.9244 43.828 25.9089 43.8917L25.8266 44.2356ZM26.6004 44.6386L26.5907 43.5306L26.7275 43.5295L26.736 44.513L27.2376 44.5086L27.2388 44.633L26.6004 44.6386ZM29.622 44.6276C29.5551 44.6282 29.4968 44.616 29.4468 44.5912C29.398 44.5663 29.3597 44.5302 29.332 44.483C29.3051 44.4346 29.2915 44.3776 29.2909 44.3118L29.2866 43.8109C29.2861 43.7441 29.2987 43.6868 29.3246 43.6391C29.3516 43.5912 29.3892 43.5546 29.4377 43.5288C29.487 43.5032 29.5453 43.49 29.6122 43.4893C29.6791 43.4888 29.7368 43.5015 29.7858 43.5273C29.8346 43.5522 29.8725 43.5883 29.8992 43.6355C29.926 43.6829 29.9397 43.7394 29.9402 43.8052L29.8034 43.8064C29.8029 43.7436 29.7857 43.6957 29.752 43.6627C29.7193 43.6286 29.673 43.6118 29.6132 43.6123C29.5534 43.6128 29.5065 43.63 29.4723 43.6635C29.4391 43.6973 29.4229 43.7455 29.4234 43.8082L29.4278 44.3106C29.4283 44.3733 29.4455 44.4217 29.4791 44.4558C29.5139 44.4889 29.5612 44.5052 29.621 44.5047C29.6808 44.5042 29.7267 44.487 29.7588 44.4534C29.7921 44.4187 29.8083 44.37 29.8078 44.3072L29.9446 44.306C29.9451 44.3708 29.9324 44.4276 29.9066 44.4764C29.8806 44.5243 29.8434 44.5614 29.7949 44.5882C29.7466 44.6138 29.6889 44.627 29.622 44.6276ZM30.2461 44.6071L30.2365 43.4991L30.3733 43.4979L30.3817 44.4814L30.8833 44.4771L30.8845 44.6015L30.2461 44.6071ZM31.4389 44.6118C31.372 44.6125 31.314 44.6003 31.2652 44.5754C31.2174 44.5506 31.1801 44.5145 31.1532 44.4671C31.1276 44.4187 31.1144 44.3617 31.1139 44.2959L31.1095 43.7951C31.1088 43.7283 31.121 43.6711 31.146 43.6232C31.1718 43.5755 31.2086 43.5387 31.2559 43.5131C31.3044 43.4873 31.362 43.4742 31.4289 43.4736C31.4958 43.473 31.5532 43.4851 31.601 43.5101C31.65 43.5349 31.6871 43.571 31.713 43.6183C31.7397 43.6657 31.7534 43.7222 31.754 43.788L31.7583 44.2904C31.7589 44.3561 31.7463 44.4135 31.7202 44.4622C31.6954 44.5099 31.6588 44.5467 31.6103 44.5725C31.5628 44.5981 31.5057 44.6113 31.4389 44.6118ZM31.4378 44.4889C31.4976 44.4884 31.5431 44.4713 31.5741 44.4376C31.6062 44.403 31.6221 44.3543 31.6214 44.2915L31.6172 43.7907C31.6165 43.728 31.6 43.6801 31.5672 43.647C31.5355 43.6128 31.4899 43.5961 31.4301 43.5966C31.3713 43.5971 31.3259 43.6146 31.2936 43.6494C31.2615 43.6829 31.2458 43.7312 31.2463 43.7939L31.2507 44.2948C31.2512 44.3575 31.2678 44.4059 31.3005 44.4401C31.3333 44.4732 31.3791 44.4894 31.4378 44.4889ZM32.3563 44.6039C32.2894 44.6045 32.2312 44.5924 32.1812 44.5674C32.1324 44.5427 32.094 44.5066 32.0663 44.4592C32.0395 44.4109 32.0258 44.3538 32.0253 44.288L32.0209 43.7871C32.0204 43.7204 32.0331 43.6632 32.0589 43.6153C32.0859 43.5676 32.1236 43.5308 32.1721 43.5052C32.2214 43.4794 32.2796 43.4662 32.3465 43.4657C32.4134 43.465 32.4712 43.4777 32.5202 43.5037C32.569 43.5285 32.6068 43.5645 32.6335 43.6119C32.6603 43.6592 32.674 43.7158 32.6745 43.7816L32.5377 43.7828C32.5372 43.72 32.52 43.6721 32.4864 43.6389C32.4536 43.6048 32.4073 43.588 32.3475 43.5887C32.2878 43.5892 32.2408 43.6062 32.2067 43.6399C32.1734 43.6735 32.1572 43.7217 32.1577 43.7845L32.1621 44.2868C32.1626 44.3496 32.1798 44.398 32.2134 44.4322C32.2482 44.4652 32.2955 44.4814 32.3553 44.4809C32.4151 44.4804 32.461 44.4634 32.4931 44.4297C32.5262 44.3951 32.5426 44.3464 32.5421 44.2836L32.6789 44.2824C32.6794 44.3472 32.6668 44.4039 32.6408 44.4528C32.6149 44.5005 32.5778 44.5378 32.5293 44.5644C32.4808 44.5902 32.4232 44.6034 32.3563 44.6039ZM32.9455 44.5836L32.9358 43.4757L33.0726 43.4745L33.0767 43.9495L33.2409 43.9482L33.4831 43.4709L33.632 43.4696L33.3615 44.0049L33.6569 44.5774L33.5003 44.5787L33.2373 44.0681L33.0777 44.0695L33.0823 44.5825L32.9455 44.5836ZM35.6798 44.5599L35.6702 43.4521L36.0135 43.449C36.0794 43.4485 36.1373 43.4617 36.1873 43.4885C36.2372 43.5145 36.276 43.5511 36.3037 43.5983C36.3316 43.6457 36.3458 43.7011 36.3463 43.7649C36.3469 43.8398 36.3277 43.9042 36.2887 43.9581C36.2507 44.0121 36.1981 44.0496 36.1314 44.0703L36.3682 44.5539L36.2071 44.5553L35.9902 44.0867L35.8124 44.0883L35.8166 44.5587L35.6798 44.5599ZM35.8114 43.9654L36.0181 43.9635C36.0748 43.963 36.1203 43.945 36.1544 43.9092C36.1885 43.8725 36.2054 43.8248 36.2049 43.7661C36.2044 43.7064 36.1867 43.659 36.152 43.6239C36.1172 43.5888 36.0715 43.5715 36.0147 43.572L35.808 43.5738L35.8114 43.9654ZM36.5273 44.5526L36.8065 43.4421L36.9905 43.4406L37.2874 44.546L37.1491 44.5472L37.0736 44.2534L36.7376 44.2563L36.6672 44.5514L36.5273 44.5526ZM36.764 44.1408L37.0437 44.1383L36.9555 43.7976C36.9388 43.733 36.9256 43.6789 36.9161 43.6355C36.9067 43.592 36.9008 43.5639 36.8986 43.5507C36.8967 43.5639 36.8915 43.5922 36.8827 43.6357C36.8739 43.6794 36.8618 43.7332 36.846 43.7969L36.764 44.1408ZM37.5026 44.5442L37.4929 43.4362L37.7802 43.4337C37.8522 43.4332 37.9142 43.4462 37.966 43.4731C38.0191 43.5 38.0598 43.5381 38.0887 43.5873C38.1185 43.6367 38.1338 43.6952 38.1343 43.763L38.1381 44.2047C38.1386 44.2725 38.1245 44.3319 38.0956 44.3826C38.0677 44.4325 38.0275 44.4713 37.975 44.4991C37.9235 44.5268 37.8618 44.541 37.7899 44.5416L37.5026 44.5442ZM37.6384 44.4216L37.7889 44.4202C37.8557 44.4197 37.9078 44.4005 37.9449 44.3627C37.9831 44.3249 38.0018 44.2727 38.0013 44.2059L37.9974 43.7642C37.9969 43.6984 37.9772 43.647 37.9383 43.6099C37.9005 43.5728 37.8481 43.5546 37.7813 43.5551L37.6308 43.5565L37.6384 44.4216ZM38.4337 44.5361L38.4327 44.4116L38.6592 44.4096L38.6518 43.5507L38.4253 43.5526L38.4241 43.4281L39.0169 43.4231L39.0181 43.5475L38.7916 43.5494L38.799 44.4084L39.0255 44.4064L39.0266 44.5308L38.4337 44.5361ZM39.6417 44.5408C39.5748 44.5413 39.517 44.5292 39.4682 44.5044C39.4203 44.4794 39.3829 44.4433 39.3563 44.3959C39.3304 44.3477 39.3172 44.2905 39.3167 44.2248L39.3123 43.7241C39.3118 43.6573 39.324 43.6 39.3488 43.5522C39.3748 43.5043 39.4115 43.4676 39.4589 43.4419C39.5074 43.4163 39.565 43.4032 39.6319 43.4025C39.6988 43.402 39.756 43.4141 39.804 43.4389C39.8528 43.4639 39.8901 43.5 39.9158 43.5473C39.9427 43.5946 39.9564 43.6511 39.9569 43.7168L39.9613 44.2192C39.9618 44.285 39.9491 44.3423 39.9233 44.391C39.8983 44.4389 39.8616 44.4757 39.8131 44.5013C39.7658 44.527 39.7086 44.5401 39.6417 44.5408ZM39.6407 44.4179C39.7005 44.4174 39.7459 44.4002 39.777 44.3666C39.8092 44.3319 39.825 44.2831 39.8244 44.2204L39.8201 43.7197C39.8195 43.657 39.8028 43.6089 39.7702 43.5758C39.7385 43.5418 39.6927 43.5249 39.6329 43.5254C39.5741 43.5259 39.5287 43.5435 39.4966 43.5782C39.4645 43.6119 39.4486 43.6602 39.4491 43.7229L39.4535 44.2236C39.454 44.2863 39.4708 44.3349 39.5035 44.369C39.5361 44.402 39.5819 44.4184 39.6407 44.4179Z"
                fill="#999787"
            />
        </g>
    </g>
    <defs>
        <filter
            id="filter0_f_507_50"
            x="41.9621"
            y="41.0683"
            width="14.507"
            height="3.74087"
            filterUnits="userSpaceOnUse"
            colorInterpolationFilters="sRGB"
        >
            <feFlood floodOpacity="0" result="BackgroundImageFix" />
            <feBlend
                mode="normal"
                in="SourceGraphic"
                in2="BackgroundImageFix"
                result="shape"
            />
            <feGaussianBlur
                stdDeviation="0.15"
                result="effect1_foregroundBlur_507_50"
            />
        </filter>
        <filter
            id="filter1_f_507_50"
            x="20.7871"
            y="43.1025"
            width="19.4741"
            height="1.88381"
            filterUnits="userSpaceOnUse"
            colorInterpolationFilters="sRGB"
        >
            <feFlood floodOpacity="0" result="BackgroundImageFix" />
            <feBlend
                mode="normal"
                in="SourceGraphic"
                in2="BackgroundImageFix"
                result="shape"
            />
            <feGaussianBlur
                stdDeviation="0.15"
                result="effect1_foregroundBlur_507_50"
            />
        </filter>
        <clipPath id="clip0_507_50">
            <rect width="63" height="57" fill="white" />
        </clipPath>
    </defs>
</svg>

