<svg width="1920" height="689" viewBox="0 0 1920 689" fill="none" xmlns="http://www.w3.org/2000/svg">
<path fill-rule="evenodd" clip-rule="evenodd" d="M0 378.849L82.6667 409.662C201.333 447.042 212.8 416.584 320 498.309C427.2 580.034 532.8 634.517 640 566.413C747.2 498.309 728.667 460.175 999.333 409.662C1280 357.283 1328.61 305.236 1374 243.997C1456 133.373 1514 54.3629 1600 21.5816C1707.2 -19.2808 1812.8 7.96079 1867.2 21.5816L1920 35.2024V689H1867.2C1812.8 689 1707.2 689 1600 689C1492.8 689 1387.2 689 1280 689C1172.8 689 1067.2 689 960 689C852.8 689 747.2 689 640 689C532.8 689 427.2 689 320 689C212.8 689 107.2 689 52.8 689H0V378.849Z" fill="url(#paint0_linear_647_95)" fill-opacity="0.4"/>
<defs>
<linearGradient id="paint0_linear_647_95" x1="960" y1="483" x2="982" y2="766" gradientUnits="userSpaceOnUse">
<stop stop-color="#FF8D24"/>
<stop offset="1" stop-color="#98CCEF"/>
</linearGradient>
</defs>
</svg>
