<svg width="1920" height="910" viewBox="0 0 1920 910" fill="none" xmlns="http://www.w3.org/2000/svg">
<path fill-rule="evenodd" clip-rule="evenodd" d="M1920 530.141L1897.45 525.666C1886.91 523.573 1876.07 523.44 1865.47 525.273C1846.83 528.498 1828.73 534.657 1812.07 543.635C1731.34 587.157 1751.48 581.934 1643.5 678.214C1536.3 789.117 1387.2 835.278 1280 742.858C1172.8 650.439 1026.17 704.262 755.5 635.714C474.833 564.633 512.377 525.103 472.5 439.214C414 313.214 338.146 205.597 282 126.714C221.5 41.7139 107.2 -14.9831 52.7999 3.50085L0 21.9848V909.214H52.7999C107.2 909.214 212.8 909.214 320 909.214C427.2 909.214 532.8 909.214 640 909.214C747.2 909.214 852.8 909.214 960 909.214C1067.2 909.214 1172.8 909.214 1280 909.214C1387.2 909.214 1492.8 909.214 1600 909.214C1707.2 909.214 1812.8 909.214 1867.2 909.214H1920V530.141Z" fill="url(#paint0_linear_647_65)"/>
<defs>
<linearGradient id="paint0_linear_647_65" x1="919" y1="144.5" x2="926.894" y2="835.378" gradientUnits="userSpaceOnUse">
<stop stop-color="#FFB1B1" stop-opacity="0.3"/>
<stop offset="1" stop-color="#B08F9D"/>
</linearGradient>
</defs>
</svg>
