<svg width="1920" height="931" viewBox="0 0 1920 931" fill="none" xmlns="http://www.w3.org/2000/svg">
<path fill-rule="evenodd" clip-rule="evenodd" d="M1920 417L1837.33 388.156C1718.67 336.214 1750.7 350.096 1643.5 236.535C1536.3 122.974 1387.2 75.7073 1280 170.342C1172.8 264.976 1026.17 209.863 755.5 280.054C474.833 352.838 512.377 393.315 472.5 481.262C414 610.281 338.146 720.476 282 801.25C221.5 888.287 107.2 946.342 52.7999 927.415L0 908.488V0H52.7999C107.2 0 212.8 0 320 0C427.2 0 532.8 0 640 0C747.2 0 852.8 0 960 0C1067.2 0 1172.8 0 1280 0C1387.2 0 1492.8 0 1600 0C1707.2 0 1812.8 0 1867.2 0H1920V417Z" fill="url(#paint0_linear_647_66)" fill-opacity="0.4"/>
<defs>
<linearGradient id="paint0_linear_647_66" x1="1334" y1="-45" x2="905.586" y2="909.192" gradientUnits="userSpaceOnUse">
<stop stop-color="#98CCEF"/>
<stop offset="1" stop-color="#FF8D24"/>
</linearGradient>
</defs>
</svg>
