<svg width="1920" height="909" viewBox="0 0 1920 909" fill="none" xmlns="http://www.w3.org/2000/svg">
<path fill-rule="evenodd" clip-rule="evenodd" d="M1920 488.327L1837.33 530.141C1731 583.214 1753 584.214 1643.5 678.214C1529.01 776.5 1387.2 835.278 1280 742.858C1172.8 650.439 1026.17 704.262 755.5 635.714C474.833 564.633 512.377 525.103 472.5 439.214C414 313.214 338.146 205.597 282 126.714C221.5 41.7139 107.2 -14.9831 52.7999 3.50085L0 21.9848L0 909.214L52.7999 909.214C107.2 909.214 212.8 909.214 320 909.214C427.2 909.214 532.8 909.214 640 909.214C747.2 909.214 852.8 909.214 960 909.214C1067.2 909.214 1172.8 909.214 1280 909.214C1387.2 909.214 1492.8 909.214 1600 909.214C1707.2 909.214 1812.8 909.214 1867.2 909.214H1920L1920 488.327Z" fill="url(#paint0_linear_647_33)" fill-opacity="0.4"/>
<defs>
<linearGradient id="paint0_linear_647_33" x1="649.5" y1="909" x2="933.24" y2="-222.903" gradientUnits="userSpaceOnUse">
<stop stop-color="#98CCEF"/>
<stop offset="1" stop-color="#FF8D24" stop-opacity="0.74"/>
</linearGradient>
</defs>
</svg>
