<svg
    width="383"
    height="283"
    viewBox="0 0 383 283"
    fill="none"
    xmlns="http://www.w3.org/2000/svg"
>
    <path
        d="M172.08 281.735C132.196 286.309 86.6621 271.776 54.8418 245.519C22.8332 219.371 4.66897 181.657 1.0654 142.926C-2.53816 104.194 8.23043 64.5543 36.5588 41.5151C64.8871 18.4758 110.832 11.7706 153.107 6.03686C195.326 0.569588 234.195 -3.87899 263.857 7.76923C293.577 19.151 314.353 46.9433 338.209 78.0744C362.121 108.939 389.564 143.346 380.549 169.365C371.59 195.118 326.173 212.481 286.506 233.028C246.52 253.527 212.153 277.052 172.08 281.735Z"
        fill="url(#paint0_linear_506_63)"
        fill-opacity="0.4"
    />
    <defs>
        <linearGradient
            id="paint0_linear_506_63"
            x1="267.935"
            y1="248.078"
            x2="118.89"
            y2="-7.71761"
            gradientUnits="userSpaceOnUse"
        >
            <stop offset="0.416667" stop-color="#FF8D24" />
            <stop offset="1" stop-color="#FF8D24" stop-opacity="0" />
        </linearGradient>
    </defs>
</svg>
